<mxfile host="app.diagrams.net" modified="2024-05-09T17:30:52.495Z" agent="Mozilla/5.0 (Windows NT 10.0; Win64; x64) AppleWebKit/537.36 (KHTML, like Gecko) Chrome/124.0.0.0 Safari/537.36" etag="3b5HZths3H9MeAxgFvki" version="24.3.1" type="device" pages="2">
  <diagram name="Страница — 1" id="wJsNEJ82uBI8TEY2wGfJ">
    <mxGraphModel dx="1222" dy="686" grid="1" gridSize="10" guides="1" tooltips="1" connect="1" arrows="1" fold="1" page="1" pageScale="1" pageWidth="1169" pageHeight="827" math="0" shadow="0">
      <root>
        <mxCell id="0" />
        <mxCell id="1" parent="0" />
        <mxCell id="CSiT0YPv_TJlBI2uHIL2-22" value="" style="edgeStyle=orthogonalEdgeStyle;rounded=0;orthogonalLoop=1;jettySize=auto;html=1;" edge="1" parent="1" source="CSiT0YPv_TJlBI2uHIL2-1" target="CSiT0YPv_TJlBI2uHIL2-9">
          <mxGeometry relative="1" as="geometry" />
        </mxCell>
        <mxCell id="CSiT0YPv_TJlBI2uHIL2-1" value="&amp;lt;&amp;lt;Таблицы баз данных&amp;gt;&amp;gt;&lt;div&gt;пользователи, группы, ...&lt;/div&gt;" style="html=1;dropTarget=0;whiteSpace=wrap;" vertex="1" parent="1">
          <mxGeometry x="160" y="480" width="200" height="100" as="geometry" />
        </mxCell>
        <mxCell id="CSiT0YPv_TJlBI2uHIL2-2" value="" style="shape=module;jettyWidth=8;jettyHeight=4;" vertex="1" parent="CSiT0YPv_TJlBI2uHIL2-1">
          <mxGeometry x="1" width="20" height="20" relative="1" as="geometry">
            <mxPoint x="-27" y="7" as="offset" />
          </mxGeometry>
        </mxCell>
        <mxCell id="CSiT0YPv_TJlBI2uHIL2-8" value="" style="edgeStyle=orthogonalEdgeStyle;rounded=0;orthogonalLoop=1;jettySize=auto;html=1;" edge="1" parent="1" source="CSiT0YPv_TJlBI2uHIL2-3" target="CSiT0YPv_TJlBI2uHIL2-6">
          <mxGeometry relative="1" as="geometry" />
        </mxCell>
        <mxCell id="CSiT0YPv_TJlBI2uHIL2-3" value="&amp;lt;&amp;lt;Сущность&amp;gt;&amp;gt;&lt;div&gt;Пользователь&lt;/div&gt;" style="html=1;dropTarget=0;whiteSpace=wrap;" vertex="1" parent="1">
          <mxGeometry x="440" y="160" width="200" height="100" as="geometry" />
        </mxCell>
        <mxCell id="CSiT0YPv_TJlBI2uHIL2-4" value="" style="shape=module;jettyWidth=8;jettyHeight=4;" vertex="1" parent="CSiT0YPv_TJlBI2uHIL2-3">
          <mxGeometry x="1" width="20" height="20" relative="1" as="geometry">
            <mxPoint x="-27" y="7" as="offset" />
          </mxGeometry>
        </mxCell>
        <mxCell id="CSiT0YPv_TJlBI2uHIL2-11" value="" style="edgeStyle=orthogonalEdgeStyle;rounded=0;orthogonalLoop=1;jettySize=auto;html=1;" edge="1" parent="1" source="CSiT0YPv_TJlBI2uHIL2-6" target="CSiT0YPv_TJlBI2uHIL2-9">
          <mxGeometry relative="1" as="geometry" />
        </mxCell>
        <mxCell id="CSiT0YPv_TJlBI2uHIL2-6" value="&lt;p style=&quot;line-height: 80%;&quot;&gt;&amp;lt;&amp;lt;Приложение&amp;gt;&amp;gt;&lt;br&gt;регистрация, авторизация,&amp;nbsp;&lt;span style=&quot;background-color: initial;&quot;&gt;...&lt;/span&gt;&lt;/p&gt;" style="html=1;dropTarget=0;whiteSpace=wrap;" vertex="1" parent="1">
          <mxGeometry x="440" y="320" width="200" height="100" as="geometry" />
        </mxCell>
        <mxCell id="CSiT0YPv_TJlBI2uHIL2-7" value="" style="shape=module;jettyWidth=8;jettyHeight=4;" vertex="1" parent="CSiT0YPv_TJlBI2uHIL2-6">
          <mxGeometry x="1" width="20" height="20" relative="1" as="geometry">
            <mxPoint x="-27" y="7" as="offset" />
          </mxGeometry>
        </mxCell>
        <mxCell id="CSiT0YPv_TJlBI2uHIL2-9" value="&lt;p style=&quot;line-height: 80%;&quot;&gt;&amp;lt;&amp;lt;Контекст БД&amp;gt;&amp;gt;&lt;br&gt;Сущности приложения&lt;/p&gt;" style="html=1;dropTarget=0;whiteSpace=wrap;" vertex="1" parent="1">
          <mxGeometry x="440" y="480" width="200" height="100" as="geometry" />
        </mxCell>
        <mxCell id="CSiT0YPv_TJlBI2uHIL2-10" value="" style="shape=module;jettyWidth=8;jettyHeight=4;" vertex="1" parent="CSiT0YPv_TJlBI2uHIL2-9">
          <mxGeometry x="1" width="20" height="20" relative="1" as="geometry">
            <mxPoint x="-27" y="7" as="offset" />
          </mxGeometry>
        </mxCell>
        <mxCell id="CSiT0YPv_TJlBI2uHIL2-19" value="" style="edgeStyle=orthogonalEdgeStyle;rounded=0;orthogonalLoop=1;jettySize=auto;html=1;" edge="1" parent="1" source="CSiT0YPv_TJlBI2uHIL2-14" target="CSiT0YPv_TJlBI2uHIL2-16">
          <mxGeometry relative="1" as="geometry" />
        </mxCell>
        <mxCell id="CSiT0YPv_TJlBI2uHIL2-14" value="&amp;lt;&amp;lt;Сущность&amp;gt;&amp;gt;&lt;div&gt;Администратор&lt;/div&gt;" style="html=1;dropTarget=0;whiteSpace=wrap;" vertex="1" parent="1">
          <mxGeometry x="720" y="320" width="200" height="100" as="geometry" />
        </mxCell>
        <mxCell id="CSiT0YPv_TJlBI2uHIL2-15" value="" style="shape=module;jettyWidth=8;jettyHeight=4;" vertex="1" parent="CSiT0YPv_TJlBI2uHIL2-14">
          <mxGeometry x="1" width="20" height="20" relative="1" as="geometry">
            <mxPoint x="-27" y="7" as="offset" />
          </mxGeometry>
        </mxCell>
        <mxCell id="CSiT0YPv_TJlBI2uHIL2-18" value="" style="edgeStyle=orthogonalEdgeStyle;rounded=0;orthogonalLoop=1;jettySize=auto;html=1;entryX=1;entryY=0.5;entryDx=0;entryDy=0;" edge="1" parent="1" source="CSiT0YPv_TJlBI2uHIL2-16" target="CSiT0YPv_TJlBI2uHIL2-9">
          <mxGeometry relative="1" as="geometry">
            <Array as="points">
              <mxPoint x="820" y="530" />
            </Array>
          </mxGeometry>
        </mxCell>
        <mxCell id="CSiT0YPv_TJlBI2uHIL2-16" value="&amp;lt;&amp;lt;Приложение&amp;gt;&amp;gt;&lt;div&gt;удаление, изменение, присмотр информации бд&lt;/div&gt;" style="html=1;dropTarget=0;whiteSpace=wrap;" vertex="1" parent="1">
          <mxGeometry x="720" y="480" width="200" height="100" as="geometry" />
        </mxCell>
        <mxCell id="CSiT0YPv_TJlBI2uHIL2-17" value="" style="shape=module;jettyWidth=8;jettyHeight=4;" vertex="1" parent="CSiT0YPv_TJlBI2uHIL2-16">
          <mxGeometry x="1" width="20" height="20" relative="1" as="geometry">
            <mxPoint x="-27" y="7" as="offset" />
          </mxGeometry>
        </mxCell>
      </root>
    </mxGraphModel>
  </diagram>
  <diagram id="2zwGGgJpJoVDUBiXfkHD" name="Страница — 2">
    <mxGraphModel dx="794" dy="446" grid="1" gridSize="10" guides="1" tooltips="1" connect="1" arrows="1" fold="1" page="1" pageScale="1" pageWidth="1169" pageHeight="827" math="0" shadow="0">
      <root>
        <mxCell id="0" />
        <mxCell id="1" parent="0" />
      </root>
    </mxGraphModel>
  </diagram>
</mxfile>
